<?xml version="1.0" standalone="no"?>
<!DOCTYPE svg PUBLIC "-//W3C//DTD SVG 20010904//EN"
 "http://www.w3.org/TR/2001/REC-SVG-20010904/DTD/svg10.dtd">
<svg version="1.0" xmlns="http://www.w3.org/2000/svg"
 width="196.000000pt" height="196.000000pt" viewBox="0 0 196.000000 196.000000"
 preserveAspectRatio="xMidYMid meet">
<metadata>
Created by potrace 1.14, written by Peter Selinger 2001-2017
</metadata>
<g transform="translate(0.000000,196.000000) scale(0.100000,-0.100000)"
fill="#000000" stroke="none">
<path d="M915 1850 c-88 -68 -90 -71 -90 -111 l0 -42 -100 -37 -100 -38 -37
30 c-39 30 -58 32 -163 12 -59 -10 -70 -12 -76 -13 -6 -1 23 -159 36 -202 3
-8 21 -23 40 -32 24 -12 35 -24 36 -39 2 -70 0 -170 -4 -174 -2 -3 -25 -5 -50
-6 l-45 -1 -30 -86 c-16 -47 -33 -96 -37 -109 -4 -15 6 -61 30 -132 l37 -110
49 0 c27 0 49 -4 50 -10 1 -13 1 -133 0 -164 -1 -15 -13 -32 -38 -48 -34 -23
-38 -30 -58 -121 -12 -53 -19 -100 -16 -105 3 -5 31 -13 61 -16 68 -8 113 -16
119 -21 6 -7 55 21 74 43 17 18 22 19 50 8 18 -7 65 -26 105 -41 l73 -27 -6
-37 c-5 -33 -3 -39 37 -71 24 -20 67 -53 96 -74 l53 -39 37 35 c20 19 58 54
84 78 40 37 46 47 41 74 -5 31 -4 32 88 74 l94 43 22 -28 c13 -15 23 -32 23
-36 0 -5 24 -6 53 -2 28 3 79 8 112 12 33 3 65 9 71 14 8 6 6 34 -6 99 -9 50
-18 93 -19 95 0 3 -1 11 -1 19 0 7 -20 21 -45 30 l-45 18 0 107 0 107 40 -1
c44 -1 40 -8 85 131 l26 81 -20 54 c-10 30 -26 75 -35 100 -16 45 -17 46 -56
44 l-40 -2 -1 41 c-2 90 0 167 5 175 3 4 23 13 45 21 23 7 41 16 41 19 0 3 8
54 19 114 l18 107 -21 5 c-12 2 -43 6 -71 9 -27 3 -73 8 -101 12 -50 6 -51 5
-72 -30 -12 -20 -25 -36 -29 -35 -4 0 -46 19 -93 42 -80 40 -85 44 -86 75 0
27 -13 44 -80 107 -43 41 -81 74 -84 74 -3 1 -45 -31 -95 -69z m167 -151 l-3
-44 153 -71 153 -71 30 44 c30 43 30 44 80 39 28 -3 51 -6 53 -6 4 0 -9 -83
-14 -92 -2 -3 -24 -14 -49 -24 -27 -10 -45 -23 -46 -33 0 -9 -1 -88 -2 -176
l0 -160 47 -1 c56 -1 58 -4 80 -69 16 -47 15 -52 -4 -115 l-21 -66 -49 1 c-39
1 -50 -2 -51 -14 -4 -76 0 -333 5 -339 4 -3 26 -14 49 -22 36 -13 42 -20 49
-55 11 -53 7 -60 -38 -63 -20 -2 -41 -5 -45 -8 -4 -2 -22 16 -39 41 -17 25
-35 45 -40 45 -8 0 -249 -111 -280 -129 -9 -5 -15 -23 -15 -48 0 -43 -12 -62
-56 -94 l-29 -20 -45 33 c-42 31 -45 35 -39 68 4 19 7 41 8 49 1 8 -55 34
-152 72 -85 32 -157 59 -161 59 -4 0 -26 -16 -48 -35 -22 -19 -42 -32 -45 -30
-2 2 -20 5 -39 6 l-36 3 9 40 c9 42 15 49 67 78 l31 17 0 166 c0 158 -1 165
-20 166 -11 0 -39 2 -62 2 l-43 2 -24 67 -23 68 18 61 c21 68 32 76 100 74 24
0 45 4 47 10 2 5 3 82 3 170 l-1 160 -42 19 c-37 17 -44 25 -51 60 -9 46 -1
54 54 55 22 1 39 -8 63 -33 l33 -34 161 62 c108 42 162 67 161 77 -1 8 -4 28
-8 46 -7 29 -3 34 40 67 l47 36 41 -34 c38 -31 41 -37 38 -77z"/>
<path d="M1245 1102 c-29 -3 -30 -5 -28 -42 l2 -40 -40 0 c-24 0 -39 -5 -40
-12 0 -7 -2 -21 -4 -32 -7 -34 6 -46 47 -46 l39 0 -4 -40 c-3 -31 -1 -40 12
-41 9 0 28 -2 44 -3 27 -2 33 11 28 66 -2 13 8 17 41 20 l43 3 3 43 c3 40 1
43 -20 42 -64 -6 -70 -2 -66 36 5 40 -9 51 -57 46z"/>
</g>
</svg>
