<?xml version="1.0" encoding="utf-8"?>
<!-- Generator: Adobe Illustrator 28.0.0, SVG Export Plug-In . SVG Version: 6.00 Build 0)  -->
<svg version="1.1" id="Vrstva_1" xmlns="http://www.w3.org/2000/svg" xmlns:xlink="http://www.w3.org/1999/xlink" x="0px" y="0px"
	 viewBox="0 0 195.6 195.6" style="enable-background:new 0 0 195.6 195.6;" xml:space="preserve">
<style type="text/css">
	.st0{fill:#707070;}
</style>
<polygon class="st0" points="130.2,85.5 121.8,85.5 121.8,93.9 113.5,93.9 113.5,102.3 121.8,102.3 121.8,110.7 130.2,110.7 
	130.2,102.3 138.6,102.3 138.6,93.9 130.2,93.9 "/>
<path class="st0" d="M100.9,191.7L81.8,177l1.6-7.3l-21.1-8l-7,6.2l-20.9-3.1l4.4-21.1l7.6-3.8v-20.5H36.3L29,97.5L36.3,76h10.1
	V55.5l-7.6-3.8l-4.4-21.1l20.9-3.1l7,6.2l21.1-8l-1.6-7.3l19.1-14.7l16.5,15.1l-0.9,6.2l19.1,9l5.2-7.4l23.6,2.8L160.7,52l-9,3.6
	v21.5h8.2l6.8,20L160,118h-8.2v21.5l9,3.6l3.7,22.6l-23.6,2.8l-5.2-7.4l-19.1,9l0.9,6.2L100.9,191.7L100.9,191.7z M90.7,173.8
	l9.8,7.5l8.5-7.7l-1.1-7.9l30.5-14.4l6.3,9l10.6-1.3l-1.6-9.9l-9.9-3.9v-35h10.4l4.1-12.9l-4.1-12.1h-10.4v-35l9.9-3.9l1.6-9.9
	l-10.6-1.3l-6.3,9l-30.5-14.4l1.1-7.9l-8.5-7.7l-9.8,7.5l2,9.1L60.6,43l-7.8-7L44,37.3l1.9,8.9l8.6,4.2V84H42.1l-4.6,13.5l4.7,14
	h12.4V145l-8.6,4.2l-1.9,8.9l8.8,1.3l7.8-7l32.1,12.2L90.7,173.8L90.7,173.8z"/>
</svg>
