<?xml version="1.0" encoding="utf-8"?>
<!-- Generator: Adobe Illustrator 28.1.0, SVG Export Plug-In . SVG Version: 6.00 Build 0)  -->
<svg version="1.1" id="Vrstva_1" xmlns="http://www.w3.org/2000/svg" xmlns:xlink="http://www.w3.org/1999/xlink" x="0px" y="0px"
	 viewBox="0 0 70 70" style="enable-background:new 0 0 70 70;" xml:space="preserve">
<style type="text/css">
	.st0{fill:#E7C0B9;}
	.st1{fill:none;}
</style>
<path class="st0" d="M37.2,57.2h-6.1c-1.1,0-1.7-0.5-2.1-0.9c-0.7-0.8-0.7-1.8-0.7-2.2V36.9h-1.6c-0.3,0-1.4,0-2.1-0.7
	c-0.6-0.7-0.6-1.5-0.6-1.9v-5.4c0-1.7,1-2.8,2.6-2.8h1.8v-4.6c0-5.6,4.1-8.6,8.2-8.6h7.2c1.4,0,2.4,1,2.4,2.4c0,0,0,3.7,0,4.8
	c0,1.7-1,2.7-2.5,2.7h-2.8c-0.9,0-1,0.7-1,1v2.4h1.8c1.6,0,2.6,1.1,2.6,2.8v5.4c0,0.5,0,1.3-0.6,2c-0.7,0.7-1.7,0.7-2.1,0.7H40v17.2
	c0,0.4,0,1.4-0.7,2.2C38.9,56.7,38.3,57.2,37.2,57.2L37.2,57.2z M31.3,54.2H37V33.9h4.3v-4.9h-4.5v-5.4c0-1.9,1.4-4,4-4H43
	c0-1,0-2.9,0-3.9h-6.6c-2.5,0-5.2,1.8-5.2,5.6v7.6h-4.4v4.9h4.3L31.3,54.2L31.3,54.2z"/>
<rect y="0" class="st1" width="70" height="70"/>
</svg>
