<?xml version="1.0" encoding="UTF-8"?><svg id="Vrstva_1" xmlns="http://www.w3.org/2000/svg" viewBox="0 0 70 70"><defs><style>.cls-1,.cls-2{stroke-width:0px;}.cls-2{fill:none;}</style></defs><path class="cls-1" d="m37.19,57.16h-6.11c-1.07,0-1.72-.47-2.08-.87-.72-.8-.73-1.82-.71-2.19v-17.17h-1.64c-.33,0-1.35,0-2.06-.71-.65-.65-.65-1.45-.64-1.93v-5.43c0-1.69,1.03-2.79,2.63-2.79h1.75v-4.65c0-5.64,4.1-8.59,8.16-8.59h7.16c1.44,0,2.42.97,2.42,2.41,0,.01-.03,3.67-.03,4.8,0,1.66-.95,2.68-2.47,2.68h-2.77c-.88,0-.95.73-.95.95v2.4h1.85c1.59,0,2.62,1.09,2.62,2.79v5.36c0,.55,0,1.35-.64,2-.71.71-1.73.71-2.06.71h-1.63v17.18c.02.37,0,1.39-.71,2.19-.36.4-1,.87-2.08.87Zm-5.9-3h5.68s0-20.23,0-20.23h4.34v-4.85h-4.47v-5.4c0-1.91,1.38-3.95,3.95-3.95h2.24c0-1,.02-2.92.02-3.89h-6.57c-2.48,0-5.16,1.75-5.16,5.59v7.65h-4.38v4.85h4.34v20.23Z"/><rect class="cls-2" y="0" width="70" height="70"/></svg>