<?xml version="1.0" encoding="utf-8"?>
<!-- Generator: Adobe Illustrator 28.0.0, SVG Export Plug-In . SVG Version: 6.00 Build 0)  -->
<svg version="1.1" id="Vrstva_1" xmlns="http://www.w3.org/2000/svg" xmlns:xlink="http://www.w3.org/1999/xlink" x="0px" y="0px"
	 viewBox="0 0 195.6 150.3" style="enable-background:new 0 0 195.6 150.3;" xml:space="preserve">
<style type="text/css">
	.st0{fill:#55585A;}
</style>
<path class="st0" d="M3.5,78.2l14.7-19.1l7.3,1.6l8-21.1l-6.2-7l3.1-20.9l21.1,4.4l3.8,7.6h20.5V13.6l21.9-7.3l21.5,7.3v10.1h20.5
	l3.8-7.6l21.1-4.4l3.1,20.9l-6.2,7l8,21.1l7.3-1.6l14.7,19.1l-15.1,16.5l-6.2-0.9l-9,19.1l7.4,5.2l-2.8,23.6l-22.6-3.7l-3.6-9h-21.5
	v8.2l-20,6.8l-20.9-6.7v-8.2H55.6l-3.6,9l-22.6,3.7l-2.8-23.6L34,113l-9-19.1l-6.2,0.9L3.5,78.2L3.5,78.2z M21.3,68l-7.5,9.8
	l7.7,8.5l7.9-1.1l14.4,30.5l-9,6.3l1.3,10.6L46,131l3.9-9.9h35v10.4l12.9,4.1l12.1-4.1v-10.4h35l3.9,9.9l9.9,1.6L160,122l-9-6.3
	l14.4-30.5l7.9,1.1l7.7-8.5l-7.5-9.8l-9.1,2l-12.3-32.1l7-7.8l-1.3-8.8l-8.9,1.9l-4.2,8.6h-33.6V19.4l-13.5-4.6l-14,4.7v12.4H50.1
	L46,23.3l-8.9-1.9l-1.3,8.8l7,7.8L30.6,70.1L21.3,68L21.3,68z"/>
<g>
	<rect x="52.5" y="70.6" class="st0" width="92.4" height="12.7"/>
	<rect x="52.5" y="48" class="st0" width="92.4" height="12.7"/>
	<rect x="52.5" y="93.1" class="st0" width="92.4" height="12.7"/>
</g>
</svg>
