<?xml version="1.0" encoding="UTF-8"?><svg id="Vrstva_1" xmlns="http://www.w3.org/2000/svg" viewBox="0 0 70 70"><defs><style>.cls-1,.cls-2{stroke-width:0px;}.cls-2{fill:none;}</style></defs><path class="cls-1" d="m47.03,54.93h-24.05c-4.36,0-7.9-3.54-7.9-7.9v-24.05c0-4.36,3.54-7.9,7.9-7.9h24.05c4.36,0,7.9,3.54,7.9,7.9v24.05c0,4.36-3.54,7.9-7.9,7.9ZM22.97,18.07c-2.7,0-4.9,2.2-4.9,4.9v24.05c0,2.7,2.2,4.9,4.9,4.9h24.05c2.7,0,4.9-2.2,4.9-4.9v-24.05c0-2.7-2.2-4.9-4.9-4.9h-24.05Zm12.03,29.18c-6.34,0-11.5-5.16-11.5-11.5s5.16-11.5,11.5-11.5,11.5,5.16,11.5,11.5-5.16,11.5-11.5,11.5Zm0-20c-4.69,0-8.5,3.81-8.5,8.5s3.81,8.5,8.5,8.5,8.5-3.81,8.5-8.5-3.81-8.5-8.5-8.5Z"/><path class="cls-1" d="m46.2,25.76c-1.32,0-2.39-1.07-2.39-2.39s1.07-2.39,2.39-2.39,2.39,1.07,2.39,2.39-1.07,2.39-2.39,2.39Z"/><rect class="cls-2" y="0" width="70" height="70"/></svg>