<?xml version="1.0" encoding="utf-8"?>
<!-- Generator: Adobe Illustrator 28.1.0, SVG Export Plug-In . SVG Version: 6.00 Build 0)  -->
<svg version="1.1" id="Vrstva_1" xmlns="http://www.w3.org/2000/svg" xmlns:xlink="http://www.w3.org/1999/xlink" x="0px" y="0px"
	 viewBox="0 0 70 70" style="enable-background:new 0 0 70 70;" xml:space="preserve">
<style type="text/css">
	.st0{fill:#E7C0B9;}
	.st1{fill:none;}
</style>
<path class="st0" d="M47,54.9H23c-4.4,0-7.9-3.5-7.9-7.9V23c0-4.4,3.5-7.9,7.9-7.9h24c4.4,0,7.9,3.5,7.9,7.9v24
	C54.9,51.4,51.4,54.9,47,54.9z M23,18.1c-2.7,0-4.9,2.2-4.9,4.9v24c0,2.7,2.2,4.9,4.9,4.9h24c2.7,0,4.9-2.2,4.9-4.9V23
	c0-2.7-2.2-4.9-4.9-4.9C47,18.1,23,18.1,23,18.1z M35,47.2c-6.3,0-11.5-5.2-11.5-11.5S28.7,24.2,35,24.2s11.5,5.2,11.5,11.5
	S41.3,47.2,35,47.2z M35,27.2c-4.7,0-8.5,3.8-8.5,8.5s3.8,8.5,8.5,8.5s8.5-3.8,8.5-8.5S39.7,27.2,35,27.2z"/>
<path class="st0" d="M46.2,25.8c-1.3,0-2.4-1.1-2.4-2.4s1.1-2.4,2.4-2.4s2.4,1.1,2.4,2.4S47.5,25.8,46.2,25.8z"/>
<rect y="0" class="st1" width="70" height="70"/>
</svg>
