<?xml version="1.0" encoding="UTF-8"?><svg id="Vrstva_1" xmlns="http://www.w3.org/2000/svg" viewBox="0 0 623.62 283.46"><defs><style>.cls-1{fill:#000202;stroke-width:0px;}</style></defs><polygon class="cls-1" points="168.04 129.48 159.63 129.48 159.63 137.85 151.26 137.85 151.26 146.26 159.63 146.26 159.63 154.63 168.04 154.63 168.04 146.26 176.41 146.26 176.41 137.85 168.04 137.85 168.04 129.48"/><path class="cls-1" d="m275.65,75.9s3.23,1.31,3.64,2.75l-14.46,51.59-14.62-52.17c.93-1.2,3.33-2.17,3.33-2.17,0,0,.92-2.58.92-3.08l-25.33.04c0,.5.91,3.07.91,3.07,0,0,3.4,1.37,3.68,2.86.04.21,25.59,87.23,25.59,87.23-1.05,1.07-3.1,1.9-3.1,1.9,0,0-.9,2.54-.9,3.04h18.83c0-.5-.9-3.04-.9-3.04,0,0-1.85-.75-2.93-1.74l25.87-88.49c1.08-1,2.96-1.77,2.96-1.77,0,0,.92-2.57.92-3.07h-25.32c0,.5.9,3.04.9,3.04Z"/><path class="cls-1" d="m325.85,165.06s-.02-86.66-.02-86.66c.68-1.34,3.54-2.5,3.54-2.5,0,0,.9-2.54.9-3.04h-24.74c0,.5.9,3.04.9,3.04,0,0,3.4,1.37,3.68,2.86.05.27.17,86.24.16,86.3-.28,1.49-3.68,2.86-3.68,2.86,0,0-.9,2.54-.9,3.04h24.74c0-.5-.9-3.04-.9-3.04,0,0-3.4-1.37-3.68-2.86Z"/><path class="cls-1" d="m425.45,165.06s-.02-86.66-.02-86.66c.68-1.34,3.54-2.5,3.54-2.5,0,0,.9-2.54.9-3.04h-1.03s0,0,0,0h-23.71c0,.51.9,3.04.9,3.04,0,0,3.4,1.37,3.68,2.86.05.27.17,86.24.16,86.3-.28,1.49-3.68,2.86-3.68,2.86,0,0-.9,2.54-.9,3.04h24.74c0-.5-.9-3.04-.9-3.04,0,0-3.4-1.37-3.68-2.86Z"/><path class="cls-1" d="m472.55,87.56s8.12,0,12.81,0c.09.02.18.03.26.05,1.49.28,2.86,3.68,2.86,3.68,0,0,2.54.9,3.04.9l.02-19.38-53.61.03.02,19.35c.5,0,3.04-.9,3.04-.9,0,0,1.37-3.4,2.86-3.68.08-.02.17-.03.26-.05,4.69,0,12.77,0,12.81,0h.09s0,77.31,0,77.31c-.01.06-.02.13-.04.19-.28,1.49-3.68,2.86-3.68,2.86,0,0-.9,2.54-.9,3.04h24.74c0-.5-.9-3.04-.9-3.04,0,0-3.4-1.37-3.68-2.86,0-.04-.02-.08-.02-.12v-77.37h.04Z"/><path class="cls-1" d="m531.82,167.91s-.9,2.54-.9,3.04h25.51c0-.5-.9-3.04-.9-3.04,0,0-3.25-1.41-3.68-2.86-.41-1.38-1.7-6.03-1.7-6.03h-.03s-22.67-80.37-22.67-80.37c.41-1.45,3.65-2.76,3.65-2.76,0,0,.9-2.54.9-3.04h-22.57c0,.5.9,3.04.9,3.04,0,0,3.21,1.3,3.64,2.74,0,0-23.98,85.04-24.39,86.42-.43,1.45-3.68,2.86-3.68,2.86,0,0-.9,2.54-.9,3.04h25.51c0-.5-.9-3.04-.9-3.04,0,0-2.85-1.16-3.54-2.5l2.82-10.74h23.63l2.83,10.77c-.71,1.33-3.53,2.47-3.53,2.47Zm-19.31-27.06l8.18-31.15,8.18,31.15h-16.37Z"/><path class="cls-1" d="m394.22,75.93s.91-2.6.91-3.1l-52.21.02v19.34c.5,0,3.04-.9,3.04-.9,0,0,1.47-3.49,2.96-3.78.1-.02,20.07-.04,20.07-.04l-25.79,78.08c-.88,1.23-3.39,2.25-3.39,2.25,0,0-.9,2.54-.9,3.04h.13s0,.04,0,.04h55.71v-19.34c-.5,0-3.04.9-3.04.9,0,0-1.47,3.49-2.96,3.78-.1.02-23.71.04-23.71.04l25.79-78.08c.88-1.23,3.39-2.25,3.39-2.25Z"/><path class="cls-1" d="m256.23,189.68h10.38v3.05h-3.51v18.32h-3.36v-18.32h-3.51v-3.05Z"/><path class="cls-1" d="m308.54,198.69h4.61v3.05h-4.61v6.26h5.8v3.05h-9.16v-21.38h9.16v3.05h-5.8v5.95Z"/><path class="cls-1" d="m359.92,211.05c-.18-.55-.31-.89-.31-2.63v-3.36c0-1.99-.67-2.72-2.2-2.72h-1.16v8.7h-3.36v-21.38h5.07c3.48,0,4.98,1.62,4.98,4.92v1.68c0,2.2-.7,3.63-2.2,4.34,1.68.7,2.23,2.32,2.23,4.55v3.3c0,1.04.03,1.8.37,2.6h-3.42Zm-3.67-18.32v6.57h1.31c1.25,0,2.02-.55,2.02-2.26v-2.11c0-1.53-.52-2.2-1.71-2.2h-1.62Z"/><path class="cls-1" d="m405.24,198.69h4.61v3.05h-4.61v6.26h5.8v3.05h-9.16v-21.38h9.16v3.05h-5.8v5.95Z"/><path class="cls-1" d="m459.73,189.68v2.99l-6.38,15.33h6.38v3.05h-9.83v-2.99l6.38-15.33h-6.08v-3.05h9.53Z"/><path class="cls-1" d="m505.85,185.16l-3.12,3.39h-2.26l2.08-3.39h3.3Zm-5.28,4.52h3.36v21.38h-3.36v-21.38Z"/><path class="cls-1" d="m549.21,195.57v15.48h-3.02v-21.38h4.21l3.45,12.79v-12.79h2.99v21.38h-3.45l-4.18-15.48Z"/><path class="cls-1" d="m138.73,235.69l-19.13-14.67,1.61-7.3-21.13-8.03-6.99,6.22-20.88-3.05,4.44-21.07,7.62-3.76v-20.51h-10.15l-7.35-22.07,7.37-21.49h10.12v-20.51l-7.62-3.77-4.44-21.06,20.88-3.05,6.99,6.22,21.12-8.03-1.61-7.3,19.13-14.67,16.54,15.07-.91,6.25,19.08,9.02,5.21-7.4,23.6,2.82-3.69,22.63-9.03,3.57v21.52h8.16l6.76,20.03-6.72,20.92h-8.21v21.52l9.03,3.57,3.69,22.63-23.6,2.82-5.21-7.4-19.08,9.02.91,6.25-16.54,15.07Zm-10.22-17.92l9.78,7.5,8.46-7.71-1.15-7.9,30.52-14.42,6.34,9,10.58-1.26-1.62-9.91-9.86-3.9v-34.96h10.37l4.13-12.86-4.08-12.1h-10.42v-34.96l9.86-3.9,1.62-9.91-10.58-1.26-6.34,9-30.52-14.42,1.15-7.9-8.46-7.71-9.78,7.5,2,9.08-32.12,12.21-7.83-6.97-8.76,1.28,1.88,8.93,8.59,4.25v33.48h-12.41l-4.64,13.53,4.67,14.04h12.38v33.48l-8.59,4.25-1.88,8.93,8.76,1.28,7.83-6.97,32.12,12.21-2,9.08Z"/></svg>