<?xml version="1.0" encoding="UTF-8"?><svg id="Vrstva_2" xmlns="http://www.w3.org/2000/svg" viewBox="0 0 227.87 164.71"><defs><style>.cls-1{stroke-width:0px;}</style></defs><g id="Vrstva_1-2"><polygon class="cls-1" points="78.32 110.24 78.32 8.7 70.31 0 70.31 110.24 78.32 110.24"/><polygon class="cls-1" points="86.03 110.24 94.04 110.24 94.04 8.7 86.03 0 86.03 110.24"/><polygon class="cls-1" points="101.73 110.37 109.74 110.37 109.74 66.82 101.73 58.09 101.73 110.37"/><path class="cls-1" d="M146.9,57.49c-7.59,0-14.77,2.94-20.23,8.29l-2.07,2.02-7.55-8.23v50.67h8.01v-25.59c.92-11.29,10.51-20.14,21.83-20.14,5.85,0,11.35,2.29,15.49,6.43,4.14,4.15,6.42,9.67,6.42,15.54l.02,23.75h6.97l.03-21.05c-.47-2.26-.72-4.58-.72-6.95,0-.66.03-1.32.06-1.98-2.83-13.01-14.42-22.78-28.27-22.78Z"/><path class="cls-1" d="M185.37,98.6c-3.49-3.85-5.46-8.87-5.46-14.08,0-11.59,9.43-21.02,21.01-21.02s21.02,9.43,21.02,21.02-9.43,21.02-21.02,21.02c-1.26,0-2.53-.12-3.8-.36l-9.05,14.58,2.03,1.26v-.02s2.23,1.39,2.23,1.39l22.09,14.1c3.11,2.84,4.89,6.86,4.89,11.04,0,8.25-6.71,14.96-14.96,14.96-7.36,0-13.49-5.34-14.73-12.35h-2.25c1.27,8.25,8.4,14.58,16.98,14.58,9.48,0,17.19-7.71,17.19-17.19,0-8.13-5.56-13.04-10.22-15.72l-20.38-12.24,5.28-8.48,1.66.19c1.09.12,2.08.19,3.03.19,14.86,0,26.94-12.08,26.94-26.94,0-6.11-2.01-11.89-5.82-16.7l-1.2-1.51.05-.08-2.23-1.96c-4.92-4.31-11.22-6.69-17.73-6.69-14.11,0-25.71,10.91-26.84,24.74.38,1.99.59,4.04.59,6.13v2.07c1.14,5.01,3.71,9.6,7.45,13.24l3.24-5.16Z"/><rect class="cls-1" x="220.3" y="64.48" width="7.21" height="2.52" transform="translate(46.9 217.8) rotate(-57.03)"/><polygon class="cls-1" points="2.55 57.43 2.55 55.12 0 55.12 .01 110.33 6.36 110.33 6.36 63.5 14.62 63.5 20.44 57.43 2.55 57.43"/><path class="cls-1" d="M65.57,84.39c0-14.08-10.86-25.66-24.64-26.83-.08,0-.15-.01-.22-.02-.69-.05-1.38-.09-2.08-.09,0,0-.01,0-.02,0,0,0-.01,0-.02,0-.7,0-1.39.04-2.07.09-.08,0-.15.01-.23.02-13.78,1.17-24.64,12.76-24.64,26.83s10.86,25.66,24.64,26.84c.07,0,.15,0,.22.02.69.05,1.38.09,2.08.09,0,0,.02,0,.02,0,0,0,.02,0,.02,0,.7,0,1.39-.03,2.07-.09.08,0,.15-.01.23-.02,13.78-1.17,24.64-12.75,24.64-26.83ZM17.61,84.39c0-11.59,9.42-21.02,21.01-21.02,11.57.02,20.98,9.44,20.98,21.02s-9.43,21.02-21.01,21.02c-11.57-.02-20.98-9.44-20.98-21.02Z"/></g></svg>