<?xml version="1.0" encoding="UTF-8"?><svg id="Vrstva_2" xmlns="http://www.w3.org/2000/svg" viewBox="0 0 227.87 164.71"><defs><style>.cls-1{fill:#fff;stroke-width:0px;}</style></defs><g id="Vrstva_1-2"><polygon class="cls-1" points="70.31 110.25 78.32 110.25 78.32 8.7 70.31 0 70.31 110.25"/><polygon class="cls-1" points="86.03 110.25 94.04 110.25 94.04 8.7 86.03 0 86.03 110.25"/><polygon class="cls-1" points="101.73 110.37 109.74 110.37 109.74 66.82 101.73 58.09 101.73 110.37"/><path class="cls-1" d="M211.35,131.8l-20.38-12.24,5.28-8.48,1.66.19c1.09.12,2.08.19,3.03.19,14.86,0,26.94-12.08,26.94-26.94,0-5.51-1.65-10.74-4.76-15.23l3.82-5.88-2.11-1.37-3.31,5.11-.66-.83.05-.08-2.23-1.96c-4.92-4.31-11.22-6.69-17.73-6.69-12.76,0-23.47,8.92-26.23,20.85-3.48-12.08-14.62-20.94-27.8-20.94-7.59,0-14.77,2.94-20.23,8.29l-2.07,2.02-7.55-8.23v50.67h8.01v-25.59c.92-11.29,10.51-20.14,21.83-20.14,5.85,0,11.35,2.29,15.49,6.44,4.14,4.15,6.42,9.67,6.42,15.54l.02,23.75h6.97l.02-16c1.38,3.55,3.51,6.79,6.31,9.51l3.24-5.16c-3.49-3.85-5.46-8.87-5.46-14.08,0-11.59,9.43-21.02,21.01-21.02s21.02,9.43,21.02,21.02-9.43,21.01-21.02,21.01c-1.26,0-2.53-.12-3.8-.36l-9.05,14.58,2.03,1.26v-.02s2.23,1.39,2.23,1.39l22.09,14.1c3.11,2.84,4.89,6.86,4.89,11.04,0,8.25-6.71,14.96-14.96,14.96-7.36,0-13.49-5.34-14.73-12.35h-2.25c1.27,8.25,8.4,14.58,16.98,14.58,9.48,0,17.19-7.71,17.19-17.19,0-8.13-5.56-13.04-10.22-15.72Z"/><polygon class="cls-1" points="20.44 57.44 2.55 57.43 2.55 55.12 0 55.12 .01 110.33 6.36 110.33 6.36 63.5 14.62 63.5 20.44 57.44"/><path class="cls-1" d="M40.93,57.56c-.08,0-.15-.01-.22-.02-.69-.05-1.38-.09-2.08-.09,0,0-.01,0-.02,0,0,0-.01,0-.02,0-.7,0-1.39.04-2.07.09-.08,0-.15.01-.23.02-13.78,1.17-24.64,12.76-24.64,26.83s10.86,25.66,24.64,26.84c.07,0,.15,0,.22.02.69.05,1.38.09,2.08.09,0,0,.02,0,.02,0,0,0,.02,0,.02,0,.7,0,1.39-.03,2.07-.09.08,0,.15-.01.23-.02,13.78-1.17,24.64-12.75,24.64-26.83s-10.86-25.66-24.64-26.84ZM38.58,105.41c-11.57-.02-20.98-9.44-20.98-21.02s9.42-21.02,21.01-21.02c11.57.02,20.98,9.44,20.98,21.02s-9.43,21.02-21.01,21.02Z"/></g></svg>