<?xml version="1.0" encoding="UTF-8"?><svg id="Vrstva_1" xmlns="http://www.w3.org/2000/svg" viewBox="0 0 70 70"><defs><style>.cls-1,.cls-2{stroke-width:0px;}.cls-2{fill:none;}</style></defs><path class="cls-1" d="m35,55.61c-9.54,0-19.2-1.77-22.38-2.62-4.16-1.12-4.96-3.49-5.47-6.02-.34-1.68-.98-6.34-.98-11.96s.64-10.28.98-11.96c.51-2.53,1.31-4.9,5.46-6.02,3.18-.86,12.83-2.62,22.38-2.62s19.2,1.77,22.38,2.62c4.16,1.12,4.96,3.49,5.47,6.02.34,1.68.97,6.34.97,11.96s-.64,10.29-.97,11.96c-.51,2.53-1.31,4.9-5.47,6.02-3.18.86-12.83,2.62-22.38,2.62Zm0-38.22c-9.25,0-18.54,1.7-21.59,2.52-2.46.66-2.88,1.59-3.3,3.72-.32,1.58-.92,5.99-.92,11.37s.6,9.79.92,11.37c.43,2.12.84,3.05,3.3,3.72,3.05.82,12.35,2.52,21.59,2.52s18.54-1.7,21.6-2.52c2.46-.66,2.88-1.59,3.3-3.72.32-1.58.92-5.98.92-11.37s-.6-9.8-.92-11.37c-.43-2.12-.84-3.05-3.31-3.72-3.05-.82-12.35-2.52-21.59-2.52Z"/><path class="cls-1" d="m28.41,44.11c-.26,0-.52-.07-.75-.2-.46-.27-.75-.76-.75-1.3v-15.22c0-.54.29-1.03.75-1.3.46-.27,1.04-.27,1.5,0l13.18,7.61c.46.27.75.76.75,1.3s-.29,1.03-.75,1.3l-13.18,7.61c-.23.13-.49.2-.75.2Zm1.5-14.12v10.02l8.68-5.01-8.68-5.01Z"/><rect class="cls-2" y="0" width="70" height="70"/></svg>