<?xml version="1.0" encoding="utf-8"?>
<!-- Generator: Adobe Illustrator 28.1.0, SVG Export Plug-In . SVG Version: 6.00 Build 0)  -->
<svg version="1.1" id="Vrstva_1" xmlns="http://www.w3.org/2000/svg" xmlns:xlink="http://www.w3.org/1999/xlink" x="0px" y="0px"
	 viewBox="0 0 70 70" style="enable-background:new 0 0 70 70;" xml:space="preserve">
<style type="text/css">
	.st0{fill:#E7C0B9;}
	.st1{fill:none;}
</style>
<path class="st0" d="M35,55.6c-9.5,0-19.2-1.8-22.4-2.6c-4.2-1.1-5-3.5-5.5-6c-0.3-1.7-1-6.3-1-12s0.6-10.3,1-12
	c0.5-2.5,1.3-4.9,5.5-6c3.2-0.9,12.8-2.6,22.4-2.6s19.2,1.8,22.4,2.6c4.2,1.1,5,3.5,5.5,6c0.3,1.7,1,6.3,1,12s-0.6,10.3-1,12
	c-0.5,2.5-1.3,4.9-5.5,6C54.2,53.9,44.5,55.6,35,55.6L35,55.6z M35,17.4c-9.2,0-18.5,1.7-21.6,2.5c-2.5,0.7-2.9,1.6-3.3,3.7
	c-0.3,1.6-0.9,6-0.9,11.4s0.6,9.8,0.9,11.4c0.4,2.1,0.8,3,3.3,3.7c3,0.8,12.4,2.5,21.6,2.5s18.5-1.7,21.6-2.5
	c2.5-0.7,2.9-1.6,3.3-3.7c0.3-1.6,0.9-6,0.9-11.4s-0.6-9.8-0.9-11.4c-0.4-2.1-0.8-3-3.3-3.7C53.5,19.1,44.2,17.4,35,17.4z"/>
<path class="st0" d="M28.4,44.1c-0.3,0-0.5-0.1-0.8-0.2c-0.5-0.3-0.8-0.8-0.8-1.3V27.4c0-0.5,0.3-1,0.8-1.3c0.5-0.3,1-0.3,1.5,0
	l13.2,7.6c0.5,0.3,0.8,0.8,0.8,1.3s-0.3,1-0.8,1.3l-13.2,7.6C28.9,44,28.7,44.1,28.4,44.1z M29.9,30v10l8.7-5
	C38.6,35,29.9,30,29.9,30z"/>
<rect y="0" class="st1" width="70" height="70"/>
</svg>
